{
  "accessors": [
    {
      "bufferView": 2,
      "componentType": 5126,
      "count": 7219,
      "max": [
        9.193460464477539,
        180.38372802734375,
        14.336211204528809
      ],
      "min": [
        -9.19379997253418,
        152.24061584472656,
        -9.12933349609375
      ],
      "type": "VEC3"
    },
    {
      "bufferView": 2,
      "byteOffset": 86628,
      "componentType": 5126,
      "count": 7219,
      "max": [
        0.9999154806137085,
        0.9999911785125732,
        0.9998870491981506
      ],
      "min": [
        -0.9999154806137085,
        -0.9995726346969604,
        -0.9996067881584167
      ],
      "type": "VEC3"
    },
    {
      "bufferView": 1,
      "componentType": 5126,
      "count": 7219,
      "max": [
        0.7143599987030029,
        0.997189998626709
      ],
      "min": [
        0.004989999812096357,
        0.40540000796318054
      ],
      "type": "VEC2"
    },
    {
      "bufferView": 0,
      "componentType": 5125,
      "count": 29886,
      "type": "SCALAR"
    },
    {
      "bufferView": 2,
      "byteOffset": 173256,
      "componentType": 5126,
      "count": 1242,
      "max": [
        3.5769453048706055,
        4.467385768890381,
        4.681535243988037
      ],
      "min": [
        -3.5768020153045654,
        -6.376678466796875,
        -0.10254088044166565
      ],
      "type": "VEC3"
    },
    {
      "bufferView": 2,
      "byteOffset": 188160,
      "componentType": 5126,
      "count": 1242,
      "max": [
        0.999696671962738,
        0.9999674558639526,
        0.9999696016311646
      ],
      "min": [
        -0.9996991157531738,
        -0.998706042766571,
        -0.9998792409896851
      ],
      "type": "VEC3"
    },
    {
      "bufferView": 3,
      "componentType": 5126,
      "count": 1242,
      "max": [
        1.0,
        0.9999001622200012,
        0.9944771528244019,
        1.0
      ],
      "min": [
        -1.0,
        -0.9974340796470642,
        -0.9946111440658569,
        -1.0
      ],
      "type": "VEC4"
    },
    {
      "bufferView": 1,
      "byteOffset": 57752,
      "componentType": 5126,
      "count": 1242,
      "max": [
        0.999500036239624,
        0.9924646019935608
      ],
      "min": [
        0.004231231287121773,
        0.0005000000237487257
      ],
      "type": "VEC2"
    },
    {
      "bufferView": 0,
      "byteOffset": 119544,
      "componentType": 5125,
      "count": 5928,
      "type": "SCALAR"
    },
    {
      "bufferView": 2,
      "byteOffset": 203064,
      "componentType": 5126,
      "count": 7219,
      "max": [
        9.193460464477539,
        180.38372802734375,
        14.336211204528809
      ],
      "min": [
        -9.19379997253418,
        152.24061584472656,
        -9.12933349609375
      ],
      "type": "VEC3"
    },
    {
      "bufferView": 2,
      "byteOffset": 289692,
      "componentType": 5126,
      "count": 7219,
      "max": [
        0.9999154806137085,
        0.9999911785125732,
        0.9998870491981506
      ],
      "min": [
        -0.9999154806137085,
        -0.9995726346969604,
        -0.9996067881584167
      ],
      "type": "VEC3"
    },
    {
      "bufferView": 1,
      "byteOffset": 67688,
      "componentType": 5126,
      "count": 7219,
      "max": [
        0.7143599987030029,
        0.997189998626709
      ],
      "min": [
        0.004989999812096357,
        0.40540000796318054
      ],
      "type": "VEC2"
    },
    {
      "bufferView": 0,
      "byteOffset": 143256,
      "componentType": 5125,
      "count": 29886,
      "type": "SCALAR"
    },
    {
      "bufferView": 2,
      "byteOffset": 376320,
      "componentType": 5126,
      "count": 2074,
      "max": [
        3.685930013656616,
        3.5675342082977295,
        4.544089317321777
      ],
      "min": [
        -3.685930013656616,
        -5.566183567047119,
        -4.171910762786865
      ],
      "type": "VEC3"
    },
    {
      "bufferView": 2,
      "byteOffset": 401208,
      "componentType": 5126,
      "count": 2074,
      "max": [
        0.9999070167541504,
        0.9993741512298584,
        0.999810516834259
      ],
      "min": [
        -0.9998852610588074,
        -0.9998659491539001,
        -0.9930073022842407
      ],
      "type": "VEC3"
    },
    {
      "bufferView": 3,
      "byteOffset": 19872,
      "componentType": 5126,
      "count": 2074,
      "max": [
        1.0,
        0.9847837686538696,
        0.8619159460067749,
        1.0
      ],
      "min": [
        -0.9999982714653015,
        -0.9486420750617981,
        -0.9306557774543762,
        1.0
      ],
      "type": "VEC4"
    },
    {
      "bufferView": 1,
      "byteOffset": 125440,
      "componentType": 5126,
      "count": 2074,
      "max": [
        0.999500036239624,
        0.998364269733429
      ],
      "min": [
        0.0005000000237487257,
        0.0005000000237487257
      ],
      "type": "VEC2"
    },
    {
      "bufferView": 0,
      "byteOffset": 262800,
      "componentType": 5125,
      "count": 11352,
      "type": "SCALAR"
    }
  ],
  "asset": {
    "extras": {
      "author": "KIFIR (https://sketchfab.com/kifir)",
      "license": "CC-BY-4.0 (http://creativecommons.org/licenses/by/4.0/)",
      "source": "https://sketchfab.com/3d-models/atom-prg-caps-concept-4616aeae6df647a5bbb36b9e534937f9",
      "title": "ATOM PRG Caps Concept"
    },
    "generator": "Sketchfab-12.67.0",
    "version": "2.0"
  },
  "bufferViews": [
    {
      "buffer": 0,
      "byteLength": 308208,
      "name": "floatBufferViews",
      "target": 34963
    },
    {
      "buffer": 0,
      "byteLength": 142032,
      "byteOffset": 308208,
      "byteStride": 8,
      "name": "floatBufferViews",
      "target": 34962
    },
    {
      "buffer": 0,
      "byteLength": 426096,
      "byteOffset": 450240,
      "byteStride": 12,
      "name": "floatBufferViews",
      "target": 34962
    },
    {
      "buffer": 0,
      "byteLength": 53056,
      "byteOffset": 876336,
      "byteStride": 16,
      "name": "floatBufferViews",
      "target": 34962
    }
  ],
  "buffers": [
    {
      "byteLength": 929392,
      "uri": "scene.bin"
    }
  ],
  "images": [
    {
      "uri": "textures/China_Zvezda_baseColor.png"
    },
    {
      "uri": "textures/China_Zvezda_metallicRoughness.png"
    },
    {
      "uri": "textures/China_Zvezda_normal.png"
    },
    {
      "uri": "textures/Sports_Co_co_baseColor.png"
    },
    {
      "uri": "textures/Sports_Co_co_metallicRoughness.png"
    },
    {
      "uri": "textures/Sports_Co_co_normal.png"
    }
  ],
  "materials": [
    {
      "doubleSided": true,
      "name": "Head",
      "pbrMetallicRoughness": {
        "baseColorFactor": [
          0.23509307101688112,
          0.23509307101688112,
          0.23509307101688112,
          1.0
        ],
        "metallicFactor": 0.0,
        "roughnessFactor": 0.8929713596497552
      }
    },
    {
      "doubleSided": true,
      "name": "China_Zvezda",
      "normalTexture": {
        "index": 2
      },
      "occlusionTexture": {
        "index": 1
      },
      "pbrMetallicRoughness": {
        "baseColorTexture": {
          "index": 0
        },
        "metallicRoughnessTexture": {
          "index": 1
        }
      }
    },
    {
      "doubleSided": true,
      "name": "Sports_Co_co",
      "normalTexture": {
        "index": 5
      },
      "occlusionTexture": {
        "index": 4
      },
      "pbrMetallicRoughness": {
        "baseColorTexture": {
          "index": 3
        },
        "metallicRoughnessTexture": {
          "index": 4
        }
      }
    }
  ],
  "meshes": [
    {
      "name": "Tops_Head_0",
      "primitives": [
        {
          "attributes": {
            "NORMAL": 1,
            "POSITION": 0,
            "TEXCOORD_0": 2
          },
          "indices": 3,
          "material": 0,
          "mode": 4
        }
      ]
    },
    {
      "name": "Shapka_China_Zvezda_China_Zvezda_0",
      "primitives": [
        {
          "attributes": {
            "NORMAL": 5,
            "POSITION": 4,
            "TANGENT": 6,
            "TEXCOORD_0": 7
          },
          "indices": 8,
          "material": 1,
          "mode": 4
        }
      ]
    },
    {
      "name": "Tops001_Head_0",
      "primitives": [
        {
          "attributes": {
            "NORMAL": 10,
            "POSITION": 9,
            "TEXCOORD_0": 11
          },
          "indices": 12,
          "material": 0,
          "mode": 4
        }
      ]
    },
    {
      "name": "Sport_Shapka_Sports_Co_co_0",
      "primitives": [
        {
          "attributes": {
            "NORMAL": 14,
            "POSITION": 13,
            "TANGENT": 15,
            "TEXCOORD_0": 16
          },
          "indices": 17,
          "material": 2,
          "mode": 4
        }
      ]
    }
  ],
  "nodes": [
    {
      "children": [
        1
      ],
      "matrix": [
        1.0,
        0.0,
        0.0,
        0.0,
        0.0,
        2.220446049250313e-16,
        -1.0,
        0.0,
        0.0,
        1.0,
        2.220446049250313e-16,
        0.0,
        0.0,
        0.0,
        0.0,
        1.0
      ],
      "name": "Sketchfab_model"
    },
    {
      "children": [
        2
      ],
      "matrix": [
        1.0,
        0.0,
        0.0,
        0.0,
        0.0,
        0.0,
        1.0,
        0.0,
        0.0,
        -1.0,
        0.0,
        0.0,
        0.0,
        0.0,
        0.0,
        1.0
      ],
      "name": "bed44797dab74c4e9c8bb36a6ef0b3fc.fbx"
    },
    {
      "children": [
        3,
        6,
        8,
        11
      ],
      "name": "RootNode"
    },
    {
      "children": [
        4
      ],
      "matrix": [
        1.0,
        0.0,
        0.0,
        0.0,
        0.0,
        2.220446049250313e-16,
        -1.0,
        0.0,
        0.0,
        1.0,
        2.220446049250313e-16,
        0.0,
        -5.556210517883301,
        7.347133159637451,
        1.024978756904602,
        1.0
      ],
      "name": "Tops"
    },
    {
      "children": [
        5
      ],
      "matrix": [
        0.3937007784843445,
        0.0,
        0.0,
        0.0,
        0.0,
        -5.2424429726560015e-08,
        0.393700778484341,
        0.0,
        0.0,
        -0.393700778484341,
        -5.2424429726560015e-08,
        0.0,
        6.683229003101587e-05,
        1.0249788761138916,
        -65.47722625732422,
        1.0
      ],
      "name": "Object_4"
    },
    {
      "mesh": 0,
      "name": "Tops_Head_0"
    },
    {
      "children": [
        7
      ],
      "matrix": [
        1.032513976097107,
        0.0,
        0.0,
        0.0,
        -0.0,
        -0.057141685867656646,
        -0.9977911463555291,
        0.0,
        0.0,
        0.7757898693196101,
        -0.0444280761298478,
        0.0,
        -5.556210517883301,
        9.58181381225586,
        0.7257000803947449,
        1.0
      ],
      "name": "Shapka_China_Zvezda"
    },
    {
      "mesh": 1,
      "name": "Shapka_China_Zvezda_China_Zvezda_0"
    },
    {
      "children": [
        9
      ],
      "matrix": [
        1.0,
        0.0,
        0.0,
        0.0,
        0.0,
        2.220446049250313e-16,
        -1.0,
        0.0,
        0.0,
        1.0,
        2.220446049250313e-16,
        0.0,
        5.48911190032959,
        7.347133159637451,
        1.024978756904602,
        1.0
      ],
      "name": "Tops001"
    },
    {
      "children": [
        10
      ],
      "matrix": [
        0.3937007784843445,
        0.0,
        0.0,
        0.0,
        0.0,
        -5.2424429726560015e-08,
        0.393700778484341,
        0.0,
        0.0,
        -0.393700778484341,
        -5.2424429726560015e-08,
        0.0,
        6.683229003101587e-05,
        1.0249788761138916,
        -65.47722625732422,
        1.0
      ],
      "name": "Object_9"
    },
    {
      "mesh": 2,
      "name": "Tops001_Head_0"
    },
    {
      "children": [
        12
      ],
      "matrix": [
        1.0193500518798828,
        0.0,
        0.0,
        0.0,
        0.0,
        -0.0506212053462129,
        -1.0180923444544783,
        0.0,
        0.0,
        1.0180923444544783,
        -0.0506212053462129,
        0.0,
        5.48911190032959,
        10.716732025146484,
        -0.878836989402771,
        1.0
      ],
      "name": "Sport_Shapka"
    },
    {
      "mesh": 3,
      "name": "Sport_Shapka_Sports_Co_co_0"
    }
  ],
  "samplers": [
    {
      "magFilter": 9729,
      "minFilter": 9987,
      "wrapS": 10497,
      "wrapT": 10497
    }
  ],
  "scene": 0,
  "scenes": [
    {
      "name": "Sketchfab_Scene",
      "nodes": [
        0
      ]
    }
  ],
  "textures": [
    {
      "sampler": 0,
      "source": 0
    },
    {
      "sampler": 0,
      "source": 1
    },
    {
      "sampler": 0,
      "source": 2
    },
    {
      "sampler": 0,
      "source": 3
    },
    {
      "sampler": 0,
      "source": 4
    },
    {
      "sampler": 0,
      "source": 5
    }
  ]
}
